<?xml version="1.0" encoding="UTF-8"?>
<!DOCTYPE svg PUBLIC "-//W3C//DTD SVG 1.1//EN" "http://www.w3.org/Graphics/SVG/1.1/DTD/svg11.dtd">
<!-- Creator: CorelDRAW X8 -->
<svg xmlns="http://www.w3.org/2000/svg" xml:space="preserve" width="1.3523in" height="2.32382in" version="1.1" style="shape-rendering:geometricPrecision; text-rendering:geometricPrecision; image-rendering:optimizeQuality; fill-rule:evenodd; clip-rule:evenodd"
viewBox="0 0 328 563"
 xmlns:xlink="http://www.w3.org/1999/xlink">
 <defs>
  <style type="text/css">
   <![CDATA[
    .fil0 {fill:#6C1D45}
   ]]>
  </style>
 </defs>
 <g id="Layer_x0020_1">
  <metadata id="CorelCorpID_0Corel-Layer"/>
  <path class="fil0" d="M263 510c1,1 1,2 1,3 0,6 -10,10 -22,10 -12,0 -22,-4 -22,-10 0,-9 19,-11 24,-11 6,1 10,2 15,5l0 -5c-2,-1 -5,-2 -8,-3 -10,-1 -25,-1 -34,7 -1,0 -1,1 -1,1 -5,4 -5,8 -3,12 1,2 5,5 8,7l0 0c0,0 0,0 0,0 1,0 1,1 1,1l0 0c10,5 19,4 29,3 12,-2 21,-8 21,-15 0,-6 -5,-10 -9,-12 0,2 0,5 0,7l0 0zm-148 -205l0 15c2,-1 4,-1 6,-1 1,0 3,0 5,1l0 -16 -11 1 0 0zm-2 12l0 -12c-2,1 -13,9 -13,18 -1,12 11,21 14,22 12,3 54,17 56,35 3,31 -28,49 -49,49l-2 18c0,0 7,14 29,22 14,3 22,2 27,0 6,-2 14,-7 17,-13 1,-2 1,-5 2,-6 -1,-14 -10,-37 -19,-57 2,-10 1,-19 -1,-25 -3,-6 -4,-9 -14,-16 -15,-11 -42,-17 -47,-24 -3,-3 -2,-10 0,-11l0 0zm81 -77c2,2 4,5 6,8 14,4 26,8 37,12 0,-28 -5,-57 -17,-85l-26 65 0 0zm-3 220c-4,5 -11,9 -16,11l0 0c-35,9 -57,-20 -58,-23 0,-3 1,-16 2,-19 -1,0 -3,0 -4,0 0,2 -1,17 -1,19 5,9 7,12 19,20 12,6 29,9 42,5 0,0 2,-1 1,0 6,-3 8,-5 10,-7 2,-1 5,-6 5,-6l0 0zm60 38c2,0 5,1 7,2l1 -1 0 0 0 0 0 -30 0 0 0 0 -19 0 11 29 0 0zm15 5c2,2 4,3 5,5l4 -5 -9 0 0 0zm8 9c0,1 1,3 1,4 0,10 -13,17 -29,19l-12 9 -21 0 1 11 -5 8 -38 0 -2 -4 -39 0 -2 -8 -21 -1 -13 -6 0 -9 1 -10 -26 0 -5 -10 -2 -2 0 -10 4 -12 -15 -1c-4,5 -11,8 -25,9 -24,-1 -28,-14 -25,-22 2,-5 9,-6 11,-7l0 -153 15 -19 3 0 14 20 0 124 4 0c-2,-5 -4,-11 -6,-16l-12 13 0 0 1 3 9 0 0 -121 -13 -19 -12 15 0 153c8,-1 15,-1 22,0l-1 -8 14 -15 -6 0c0,0 0,22 0,25 -1,0 -3,-1 -4,-1l0 -24 -18 -1 -1 -3 0 0 -1 -1 -3 -10 0 0 -1 -2 3 -10 15 -19c0,-1 -1,-2 -1,-3l-25 -2 -2 -3 0 0 -3 -13 4 -7 18 -18c0,-4 -1,-8 -1,-13l-15 -9 -1 0 -7 -3 0 -11 7 -5 6 -4 9 -11c0,-1 0,-3 0,-5l-20 2c0,0 7,-5 17,-12l-12 -7 -5 -6 1 -14 8 -2 15 0c1,-5 1,-9 2,-14l0 36c2,-1 3,-2 4,-3l0 -22 13 -2 0 16c1,0 2,-1 3,-2l0 -15 11 -1 0 10c1,-1 2,-1 4,-2l0 -9 14 -2 0 4c1,-1 3,-1 4,-2l0 -2 10 -2c7,-3 14,-5 21,-6l0 -16c-1,0 -4,-1 -4,-3 -1,-4 -1,-7 2,-10 -1,-2 -3,-3 -5,-4l0 -17 13 -3 4 13 5 0 -4 -14 3 -1 16 47c6,1 12,1 18,2l2 -3c-6,-1 -11,-2 -16,-1l-15 -46 4 -1 3 9 43 -9 5 -12 13 -4 -30 77c2,0 4,0 6,1l29 -79 6 -2c2,5 1,9 -1,15l-27 68c1,0 3,0 5,1l28 -70c2,-5 2,-10 -1,-15l55 -13 16 9 22 -5 -23 -14 -179 44 0 -16 5 -2 0 -11 -11 -3 0 -5 11 4 0 -44 -11 -6 0 -4 11 5 0 -35 3 -1 0 -3 -14 -7 0 -5 14 7 0 -36 -14 -8 0 36 -18 7 0 -41 18 -9 48 30 0 35 3 1 0 -23 34 -11 30 17 0 52c-1,12 -12,17 -26,21l0 18 27 -7 0 -114 21 -8 20 12 0 -20 20 -7 0 1 24 13 0 114 14 9 0 18 -29 7 33 18 0 15 -2 6 -18 17 0 2 3 0 25 12 0 22 -24 11 0 14 25 10 0 22 -24 4 0 16 22 17 -1 21 -24 -1 -3 12 18 22 0 18 -3 3 -25 -2 0 6 17 27 0 6 -6 15 -27 0 9 26 0 4 -7 7 0 0zm-35 23c-7,-1 -13,-2 -18,-5l1 4 -8 6 19 0 6 -5 0 0zm-24 -29c1,-2 4,-4 7,-5l0 -192 4 -8 0 0 3 -6 0 0 10 -19 6 -2 18 31 0 102 0 0 0 0 21 13 0 0 0 4 -21 0 0 0 0 0 0 39 -4 0 0 -156 -16 -28 -9 15 0 0 -4 8 0 0 -4 7 -1 174 0 10 -3 2c-2,4 -6,3 -9,8l2 3 0 0zm31 4l-22 0c2,-3 9,-6 17,-6 10,0 18,4 18,8 0,4 -8,8 -18,8 -9,0 -17,-3 -17,-7l22 0 0 -3zm17 -11l0 0 0 -30 0 0 0 0 2 0 0 0 0 1 10 29 -12 0 0 0zm-4 -35l0 -1 -12 -13c-3,5 -5,10 -8,14l20 0 0 0zm-26 -163l4 -7 2 0c1,2 1,4 1,6l-7 1 0 0zm-6 -6l-4 6 -47 4c-1,6 -2,14 -4,18l40 115c0,1 0,1 0,1 -1,0 -1,1 -1,2 -2,1 -3,1 -4,0l-39 -111c-1,3 -4,9 -7,11 -1,-2 -4,-6 -5,-7 9,-13 15,-36 11,-54l8 -1c1,7 2,12 1,20l51 -4 0 0zm-199 179c-5,0 -18,0 -19,4 -2,5 5,10 18,10 5,0 15,0 17,-6 2,-4 -4,-6 -6,-7l0 0c-4,0 -8,-1 -10,-1l0 0zm19 16l0 0c-1,0 -1,1 -2,1 -2,1 -4,2 -4,2l0 0c-4,1 -9,2 -15,2 -18,0 -25,-12 -22,-18 3,-6 19,-5 25,-5 2,0 6,0 9,1l0 0c5,1 11,2 13,7 0,0 0,1 0,1 0,1 0,2 0,2 -1,3 -2,6 -4,7l0 0zm-35 -11l17 0 0 2 -17 0c1,2 7,4 15,4 6,0 11,-1 14,-3l-1 -4c-3,-2 -10,-3 -12,-3 -4,0 -15,0 -16,3 0,1 0,1 0,1l0 0zm41 7c0,-2 0,-4 0,-5 0,-2 -1,-4 -2,-5l11 -8c2,4 5,8 8,12l-2 6 -15 0 0 0zm-21 -93l-14 0 -5 -1 3 0 14 -7c1,3 1,5 2,8l0 0zm-8 -55l-6 -2 5 0c0,1 1,2 1,2l0 0zm72 182l-21 0 3 -4 7 -18c4,4 8,8 12,11l-1 11 0 0zm32 26l-20 -1 3 -7 3 -18c4,2 9,4 14,5l0 21zm14 8l24 0 -2 -3 -2 -24c-4,1 -8,1 -13,1 -1,0 -2,0 -2,0l-3 21 -2 5 0 0zm42 -30l15 0 -3 -11c-4,3 -8,5 -12,7l0 4 0 0zm17 5l-18 0 1 21 -2 8 23 0 4 -6 -2 -13 -4 -6 -2 -4 0 0zm63 -101l19 0 17 26 -24 0 -4 -9 -8 -17 0 0zm12 31l24 0 -4 12 -24 0 4 -12 0 0zm20 -92l-3 12 -23 -2 0 0c1,-6 2,-12 3,-19l23 9 0 0 0 0zm-23 14l22 3 16 18 -23 -3 -15 -18 0 0zm16 23l23 2 -1 13 -24 -2 2 -13 0 0zm12 -89l0 16 -25 -2c0,-6 0,-12 0,-18 0,0 0,-1 0,-2l25 6 0 0zm-21 18l22 2 15 11 -21 -3 -16 -10 0 0zm19 15l23 2 -1 15 -23 -3 1 -14 0 0zm-270 -188l-1 0 -6 14 7 10 0 -24zm0 50l-14 -5 -4 17 18 18 0 -30zm19 82c0,7 0,12 0,19 0,100 43,181 96,181 18,0 36,-10 51,-28 -1,0 -1,0 -1,0 1,-1 3,-2 3,-3 0,0 1,0 1,0 0,-1 1,-2 2,-3 0,0 0,-1 0,-1l0 0c1,0 1,-1 2,-2 -1,1 -2,1 -3,2 -1,0 -1,0 -1,1 0,0 0,0 0,0 -1,1 -10,11 -10,11 0,0 0,0 0,0 -9,8 -21,16 -37,16 -32,-2 -51,-27 -53,-30 -3,-2 -1,-4 -1,-4l10 -24c-1,0 -3,-1 -4,-1 -1,3 -8,18 -9,20 -2,2 -5,0 -5,0 0,0 -2,-4 -3,-6 -1,-1 1,-4 1,-4l7 -15c-1,0 -2,-1 -3,-2l-8 16c-19,-35 -27,-82 -27,-122l48 -3c1,-2 5,-6 7,-7l-55 4 0 -16 -8 1 0 0zm168 139c0,-2 1,-3 2,-5l-30 -85c4,-9 7,-19 8,-29l-6 0c-2,9 -5,17 -8,25l32 93c1,1 1,1 2,1l0 0zm4 -10c12,-30 20,-68 20,-110 0,0 0,-1 0,-2l-33 2c-1,13 -6,30 -11,39l24 71 0 0zm-83 -388l0 30 6 3 0 -30 -6 -3 0 0zm-3 28l0 -30 -6 -4 0 30 6 4 0 0zm-10 -4l0 -32 -7 -4 0 36 4 2 3 -2 0 0zm-46 -43l-14 7 0 40 14 -5 0 -42zm-18 9l-11 5 0 39 11 -5 0 -39zm-14 7l-13 6 0 37 13 -5 0 -38zm-13 47l0 39 13 -4 0 -40 -13 5 0 0zm0 44l0 40 13 -3 0 -41 -13 4 0 0zm0 44l0 38 13 -2 0 -39 -13 3 0 0zm0 42l0 41 13 -2 0 -41 -13 2 0 0zm0 77l0 3 -7 1c0,0 3,-2 7,-4l0 0zm13 2l0 -10c1,-1 2,-2 3,-3l0 13 -3 0 0 0zm14 -1l0 -18c1,-1 2,-1 4,-2l0 19 -4 1 0 0zm18 -2l0 -15 4 2 0 12 -4 1 0 0zm0 -21l0 -4c1,-1 3,-1 4,-2l0 7 -4 -1 0 0zm22 19l0 -4 8 3 -8 1 0 0zm0 -11l0 -21c0,0 1,-1 1,-1l14 28 -15 -6 0 0zm0 -32l0 -43 -18 4 0 41 18 -2 0 0zm0 -47l0 -42 -18 4 0 41 18 -3 0 0zm0 -47l0 -46 -18 6 0 45 18 -5 0 0zm0 -50l0 -42 -18 7 0 41 18 -6 0 0zm-22 147l0 -42 -14 3 0 41 14 -2 0 0zm-18 3l0 -42 -11 2 0 41 11 -1 0 0zm18 -49l0 -41 -14 4 0 39 14 -2 0 0zm-18 3l0 -39 -11 2 0 39 11 -2 0 0zm18 -48l0 -45 -14 5 0 43 14 -3 0 0zm-18 4l0 -42 -11 3 0 42 11 -3 0 0zm18 -53l0 -41 -14 6 0 40 14 -5 0 0zm-18 6l0 -40 -11 4 0 40 11 -4 0 0zm177 -86l20 12 0 23 -20 -35 0 0zm-1 110l28 -7 -28 -47 0 54zm41 -10l8 -2 12 6 0 -107 -20 -10 0 113zm-126 -46l-24 -13 0 97 24 -6 0 -78zm17 74l17 -4 0 -18 -17 -11 0 33 0 0zm4 -38l15 10c9,-3 20,-5 24,-15l0 -49 -18 -10 0 55c-1,4 -10,7 -21,9l0 0zm-4 -47l7 -3 0 29 -7 3 0 -29zm114 243l19 4 18 -2 -19 -5 -18 3 0 0zm20 -9l22 8 0 -14 -22 -9 0 15 0 0zm-3 -20l0 -13 -23 -8c0,0 0,0 -1,0 1,7 1,14 0,20l1 1 23 0 0 0zm-18 -25l20 8 21 -8 -23 -10c-5,3 -12,7 -18,10l0 0zm20 -15l23 10 0 -13 -23 -10 0 13 0 0zm-10 -70l25 15 0 9 -25 -14 0 -10 0 0zm24 29l-18 18 -23 -13 17 -18 24 13 0 0zm-45 10l24 12 0 2 -7 0 -16 4c0,-6 0,-12 -1,-18l0 0zm-170 206c0,0 5,-2 3,-3 -2,-1 -6,-1 -8,-2 -2,-1 -2,-3 0,-3 3,0 3,-1 4,-3 0,-3 0,-12 0,-12 0,0 -2,-2 -4,-3 0,4 0,6 0,4 0,1 -1,-2 -2,-5 0,0 -1,0 -1,0 0,0 0,0 0,0 -1,0 -3,-1 -4,-1 1,6 1,9 1,8 0,0 -2,-5 -3,-8 -1,-1 -2,-1 -3,-1 1,5 2,9 1,8 0,1 -3,-6 -4,-9 -4,-1 -6,-3 -6,-5 0,-1 2,-3 5,-4 0,-2 0,-3 0,-4 0,-2 0,-6 0,-6 0,0 2,-4 2,-6 1,-2 4,-1 1,3 -2,3 -2,7 -1,12 1,0 2,0 4,-1 0,-1 0,-1 0,-2 0,-1 0,-3 0,-3 0,0 1,-6 2,-9 1,-2 8,-7 2,0 -2,2 -2,8 -2,14 1,-1 3,-1 4,-1 0,-1 0,-1 0,-2 0,-1 1,-2 1,-2 0,0 2,-11 3,-13 1,-2 8,-7 3,0 -3,2 -3,9 -3,16 3,0 6,-1 10,-1 2,-8 6,-12 10,-19 -11,-4 -17,-16 -17,-23 -17,9 -27,27 -27,47 0,29 22,53 50,53 17,0 52,-17 45,-44 -2,1 -7,2 -11,2 -1,3 -5,10 -5,10 -2,1 0,-4 2,-9 -3,0 -5,1 -8,1 0,0 0,0 0,0 -2,2 -4,5 -4,5 0,0 1,7 -1,7 -2,0 -2,2 -2,2l-5 7c0,0 -2,2 -4,3 -3,2 -4,7 -4,7 27,3 38,-27 38,-28 0,0 3,-1 0,4 -6,18 -21,29 -43,29 -4,0 -6,0 -6,-1 -3,2 -3,-4 -3,-4l3 -5c0,0 2,-2 2,-8 1,-3 2,-5 4,-6 -1,0 -1,0 -1,0 -2,1 -5,7 -5,9 0,2 -1,5 -3,6 -3,1 -3,4 -3,4 0,0 -3,2 -5,2 -2,0 -20,-11 -13,-12 3,-1 11,5 11,5l0 0zm181 -248l0 -6 -12 -7 -12 6c3,7 4,13 5,20l19 -13 0 0zm-91 87c1,4 3,8 5,19l-7 1c0,-3 -4,-18 -7,-22l9 2 0 0zm16 18c0,-2 -2,-9 -3,-14 18,5 33,11 33,11l-30 3 0 0zm-39 -14c2,3 5,8 7,17l-9 1c-1,-5 -3,-11 -5,-13l7 -5 0 0zm-27 -62l39 -8 -15 38c-5,-1 -10,-1 -15,-1l-9 -29 0 0zm-25 12l0 -6 11 0 0 6c-3,0 -8,0 -11,0l0 0zm17 6l1 -1 8 25c-2,0 -4,0 -5,0l-6 -17c1,-2 3,-5 2,-7l0 0zm37 146c-3,-8 -7,-14 -12,-20 -9,-10 -22,-16 -36,-16 -3,0 -5,0 -8,0 0,2 0,4 1,5 17,12 41,13 55,31l0 0zm-70 -41l-22 2c-1,8 0,25 0,25l0 1c5,-8 12,-15 20,-20 0,-3 1,-5 2,-8l0 0zm27 -95c0,-1 0,-1 -1,-1 -1,-1 -3,-2 -4,-2 -1,0 -4,2 -5,2l0 16c1,0 3,-1 5,-1 2,0 3,0 5,0l0 -14 0 0zm2 -4c-3,0 -6,-3 -8,-2 -1,0 -3,1 -4,1 -1,0 -4,0 -5,-2 0,-2 0,-2 0,-4 1,-1 3,-3 5,-3 2,0 9,0 11,1 1,0 3,2 3,5 0,2 -2,4 -2,4l0 0zm-10 4l-1 0 0 10 1 0 0 -10zm0 12l-1 0 0 1 1 0 0 -1zm-3 27l4 0 0 -17c1,0 3,0 4,0 1,-1 2,-1 3,-1l0 19 -5 12 -6 -13 0 0zm-1 -16l0 14 -6 -13c2,0 4,-1 6,-1l0 0zm2 1l-2 0 0 2 2 0 0 -2zm0 8l-2 0 0 5 2 0 0 -5zm12 50l0 11c0,0 11,-1 10,-8 0,-7 -5,-12 -12,-12 -9,0 -17,-1 -21,-8l-11 2c-2,3 -1,9 2,10 3,0 9,2 12,2 2,0 15,1 15,1 2,0 5,1 5,2l0 0zm-22 -18c4,4 8,7 13,7l7 0 0 -9 -20 2 0 0zm136 -18l-221 22c0,0 60,-45 102,-49 44,-3 119,27 119,27l0 0zm-90 -23c4,1 10,6 11,7l-7 4c-4,-4 -10,-8 -16,-10l1 -2c3,0 7,0 11,1l0 0zm-22 32l45 -28c-1,0 -2,0 -4,-1l-46 30 0 0 -1 0 6 -1 0 0zm-14 1l0 1 2 0 -15 -31c1,-1 2,-1 3,-1l15 31 -10 1 -43 -16c1,-1 3,-1 4,-2l44 17 0 0zm-14 -30c0,0 0,0 0,0 0,0 0,0 0,0l0 0zm37 -4l-16 34 -2 0 14 -35c0,0 6,1 4,1l0 0zm115 25l-244 25c0,0 65,-52 111,-55 50,-4 133,30 133,30l0 0zm-105 103l0 12c1,0 2,0 3,0 1,-3 1,-7 0,-9 -1,-1 -1,-2 -1,-3 -1,0 -2,0 -2,0l0 0zm-5 13c0,-3 0,-11 -1,-14 -1,0 -2,0 -3,0 -1,2 -1,3 0,4 2,2 1,7 -1,8 -1,0 -1,1 -2,2 2,0 5,0 7,0l0 0zm-13 -29c-5,4 -3,0 -3,13 0,0 0,0 1,0 0,-1 1,-2 1,-2 0,0 4,-2 5,-8 0,0 0,-1 0,-1 -1,-1 -3,-1 -4,-2l0 0zm11 5c0,2 1,4 0,6 0,0 -1,1 -1,2 3,1 7,1 10,2 1,-1 1,-1 1,0 3,0 6,1 9,1 -3,-4 -11,-8 -19,-11l0 0zm24 20c0,-3 -2,-5 -3,-7 -3,0 -6,-1 -8,-1l0 0c-1,0 -1,0 -2,0 1,1 1,3 2,4 0,2 0,3 0,3l0 3c5,0 9,-1 11,-2l0 0zm-71 3c0,-3 0,-8 0,-12 3,0 6,-1 10,-1 -1,3 -2,7 -2,10 -1,5 -6,3 -7,3 0,0 -1,0 -1,0l0 0zm-4 -11c0,2 0,4 0,4l0 3c0,0 0,2 1,4 -1,0 -3,-1 -4,-1 -1,-3 -1,-6 -1,-10 1,0 3,0 4,0l0 0zm-6 1c0,2 0,4 0,4l0 3c0,0 0,1 0,2 -1,-1 -2,-1 -3,-1 0,-2 -1,-5 -1,-7 1,-1 2,-1 4,-1l0 0zm-6 1c0,2 0,3 0,3l1 3c-2,-1 -4,-2 -4,-3 0,-1 1,-2 3,-3l0 0zm60 12c-1,1 -2,1 -3,1 -1,2 -1,4 -1,8 1,7 -5,8 -7,9 -2,0 -5,0 -5,3 -1,3 -2,6 -4,6 -1,1 -2,3 -3,5 2,-2 6,-4 7,-4 1,-2 3,-6 3,-6 0,0 1,-1 4,-2 3,-1 5,-6 5,-6 0,0 0,-4 2,-6 1,-2 2,-5 2,-5 0,0 0,-1 0,-3l0 0zm-13 1c-1,0 -2,0 -2,0 -1,0 -1,1 -1,1 0,0 -1,4 -1,6 0,1 -1,2 -2,3 2,-1 3,-1 3,-1 0,0 3,2 3,-5 0,-2 0,-3 0,-4l0 0zm2 -17c0,1 0,2 2,3 3,1 -1,7 -1,7 0,0 -2,1 -3,5 0,0 0,0 -1,0 1,-3 3,-8 3,-15 0,0 0,0 0,0z"/>
 </g>
</svg>
